<?xml version="1.0" encoding="iso-8859-1"?>
<!-- Uploaded to: SVG Repo, www.svgrepo.com, Generator: SVG Repo Mixer Tools -->
<svg height="800px" width="800px" version="1.1" id="Layer_1" xmlns="http://www.w3.org/2000/svg" xmlns:xlink="http://www.w3.org/1999/xlink" 
	 viewBox="0 0 512 512" xml:space="preserve">
<path style="fill:#FFE14D;" d="M256,512C114.837,512,0,397.157,0,256S114.837,0,256,0s256,114.843,256,256S397.163,512,256,512z"/>
<path style="fill:#FFCC33;" d="M512,256C512,114.843,397.163,0,256,0v512C397.163,512,512,397.157,512,256z"/>
<path style="fill:#A6673A;" d="M178.087,211.478c-18.413,0-33.391-14.978-33.391-33.391s14.978-33.391,33.391-33.391
	s33.391,14.978,33.391,33.391S196.5,211.478,178.087,211.478z"/>
<path style="fill:#99522E;" d="M333.913,211.478c-18.413,0-33.391-14.978-33.391-33.391s14.978-33.391,33.391-33.391
	s33.391,14.978,33.391,33.391S352.326,211.478,333.913,211.478z"/>
<path style="fill:#A6673A;" d="M256,411.826c-85.924,0-155.826-69.902-155.826-155.826c0-9.223,7.479-16.696,16.696-16.696
	s16.696,7.473,16.696,16.696c0,67.511,54.924,122.435,122.435,122.435S378.435,323.511,378.435,256
	c0-9.223,7.479-16.696,16.696-16.696c9.217,0,16.696,7.473,16.696,16.696C411.826,341.924,341.924,411.826,256,411.826z"/>
<path style="fill:#99522E;" d="M411.826,256c0-9.223-7.479-16.696-16.696-16.696c-9.217,0-16.696,7.473-16.696,16.696
	c0,67.511-54.924,122.435-122.435,122.435v33.391C341.924,411.826,411.826,341.924,411.826,256z"/>
</svg>